<svg id="Layer_1" data-name="Layer 1" xmlns="http://www.w3.org/2000/svg" viewBox="0 0 187.67 144.33"><defs><style>.cls-1{fill:#fff;}</style></defs><title>menu</title><path class="cls-1" d="M91.74,95h57c4,0,6.62,2.08,7.24,5.69a6.73,6.73,0,0,1-6.12,7.79c-.43,0-.86,0-1.29,0H34.81c-3.52,0-6-1.52-7-4.34A6.7,6.7,0,0,1,34.27,95c10.27,0,20.54,0,30.81,0Z"/><path class="cls-1" d="M91.74,64.3h57c4,0,6.62,2.08,7.24,5.69a6.73,6.73,0,0,1-6.12,7.79c-.43,0-.86,0-1.29,0H34.81c-3.52,0-6-1.52-7-4.34a6.7,6.7,0,0,1,6.5-9.15c10.27,0,20.54,0,30.81,0Z"/><path class="cls-1" d="M91.74,33.64h57c4,0,6.62,2.08,7.24,5.69a6.73,6.73,0,0,1-6.12,7.79c-.43,0-.86,0-1.29,0H34.81c-3.52,0-6-1.52-7-4.34a6.7,6.7,0,0,1,6.5-9.15c10.27,0,20.54,0,30.81,0Z"/></svg>