<svg id="Layer_1" data-name="Layer 1" xmlns="http://www.w3.org/2000/svg" viewBox="0 0 312.67 40.33"><defs><style>.cls-1{fill:#fff;}</style></defs><title>menu</title><path class="cls-1" d="M121.6,27.34A3.59,3.59,0,0,0,119,26.27H84.59a1.24,1.24,0,0,1-.9-.38,1.09,1.09,0,0,1-.38-.84V10.43a3.53,3.53,0,0,0-1.1-2.6,3.64,3.64,0,0,0-6.2,2.6V25.05a7.93,7.93,0,0,0,.72,3.36,8.73,8.73,0,0,0,4.66,4.5h0a8.66,8.66,0,0,0,3.39.67H119a3.66,3.66,0,0,0,2.56-6.24ZM81.72,32.08Z"/><path class="cls-1" d="M176.6,7.84A3.58,3.58,0,0,0,174,6.77H134.55a3.64,3.64,0,0,0-3.65,3.66,3.64,3.64,0,0,0,3.65,3.65H151.9a14.29,14.29,0,0,0-.78,2.29,15.18,15.18,0,0,0-.48,3.8v9.75a3.63,3.63,0,0,0,3.62,3.65h0a3.64,3.64,0,0,0,3.65-3.65V20.17a10.65,10.65,0,0,1,.21-2,5.75,5.75,0,0,1,.75-1.94,4.57,4.57,0,0,1,1.47-1.46,5,5,0,0,1,2.39-.69h11.59a3.75,3.75,0,0,0,2.33-1.16,3.5,3.5,0,0,0,1-2.49A3.57,3.57,0,0,0,176.6,7.84Z"/><path class="cls-1" d="M240.5,7.84a3.66,3.66,0,0,0-6.24,2.59v9.75a10.06,10.06,0,0,1-.24,2.08,5.19,5.19,0,0,1-.83,1.94,5,5,0,0,1-1.68,1.48,5.57,5.57,0,0,1-2.77.6H205.9a5.49,5.49,0,0,1-2.78-.59,5,5,0,0,1-1.66-1.48,5.33,5.33,0,0,1-.84-1.94h0a10.24,10.24,0,0,1-.24-2.08V10.43a3.66,3.66,0,1,0-7.31,0v9.75a15,15,0,0,0,.73,4.58A14.54,14.54,0,0,0,195.91,29a12.35,12.35,0,0,0,3.37,3.18,9.26,9.26,0,0,0,4.64,1.43h26.2A9.43,9.43,0,0,0,235,32.31a12.41,12.41,0,0,0,3.59-3.18,14.4,14.4,0,0,0,2.23-4.28,15,15,0,0,0,.76-4.67V10.43A3.57,3.57,0,0,0,240.5,7.84Z"/><path class="cls-1" d="M305,21.74a8.46,8.46,0,0,0-4.55-4.55,8.51,8.51,0,0,0-3.36-.67H265.39a1.22,1.22,0,0,1-.89-.38,1.09,1.09,0,0,1-.39-.84,1.05,1.05,0,0,1,.37-.85,1.27,1.27,0,0,1,.91-.37h34.93A3.64,3.64,0,0,0,304,10.43a3.64,3.64,0,0,0-3.66-3.66H265.5a8.34,8.34,0,0,0-3.34.68A8.63,8.63,0,0,0,257.65,12a8.55,8.55,0,0,0,0,6.69,8.64,8.64,0,0,0,4.5,4.51l.36-.82h0l-.36.83a8.3,8.3,0,0,0,3.34.68h31.84a1.14,1.14,0,0,1,.86.37,1.21,1.21,0,0,1,.36.91,1,1,0,0,1-.35.81,1.18,1.18,0,0,1-.87.36h-35a3.66,3.66,0,0,0,0,7.31H297.1a8.79,8.79,0,0,0,3.35-.64,8.26,8.26,0,0,0,2.74-1.8A8.77,8.77,0,0,0,305,28.45a8.26,8.26,0,0,0,.68-3.34A8.46,8.46,0,0,0,305,21.74Z"/><path class="cls-1" d="M60.3,28.83a4.74,4.74,0,0,0-.85-1.1L42.21,8.57a9,9,0,0,0-3.46-2.36,11.71,11.71,0,0,0-4.39-.83,11.59,11.59,0,0,0-4.62.93,9.85,9.85,0,0,0-3.51,2.44L9,28a3.11,3.11,0,0,0-1,2.35,3.44,3.44,0,0,0,1.32,2.7,4.56,4.56,0,0,0,3,1,4.5,4.5,0,0,0,3.27-1.32L15,32.13h0l.67.61,16.7-18.42a7.49,7.49,0,0,1,1-.92,1.6,1.6,0,0,1,1-.38,1.63,1.63,0,0,1,1,.38,13.68,13.68,0,0,1,1.14.95L53,32.68a4.31,4.31,0,0,0,3.32,1.42h.05a4.56,4.56,0,0,0,3-1,3.43,3.43,0,0,0,1.33-2.7A3.07,3.07,0,0,0,60.3,28.83ZM33.94,22.48a4.46,4.46,0,1,0,4.46,4.46A4.46,4.46,0,0,0,33.94,22.48Z"/></svg>