<svg id="Layer_1" data-name="Layer 1" xmlns="http://www.w3.org/2000/svg" viewBox="0 0 86.67 84.67"><defs><style>.cls-1{fill:#333;}</style></defs><title>iconos</title><path class="cls-1" d="M71,49.24c-2.9-.41-2.9-.41-2.9-3.3q0-3.11,0-6.21c0-2.21.86-2.73,2.95-1.64-.66-9.76-4.8-17.47-13.07-22.56-9.56-5.88-19.48-5.89-29.07-.11-8.37,5.05-12.61,12.81-13.25,22.77.33-.22.45-.32.59-.4A1.42,1.42,0,0,1,18.57,39c.06,2.86,0,5.73,0,8.59,0,1-.57,1.47-1.6,1.51-.86,0-1.73,0-2.59,0a1.44,1.44,0,0,1-1.63-1.5c0-6.57-.57-13.21,2-19.51C19,17.7,26.6,11.14,37.66,8.93A30.32,30.32,0,0,1,69.44,23a29.34,29.34,0,0,1,4.43,15.09c.09,6.9.06,13.8.09,20.7a2.17,2.17,0,0,1-1.08,2c-5.55,3.68-11.07,7.39-16.63,11a5,5,0,0,1-1.93.59,7.77,7.77,0,0,1-1.86,0,2.73,2.73,0,0,0-3,1.31A3.61,3.61,0,0,1,47,75.18a48.32,48.32,0,0,1-7.32,0,4.07,4.07,0,0,1-3.56-3.86,4.32,4.32,0,0,1,3-4.52,3.54,3.54,0,0,1,1-.19c2.14,0,4.28,0,6.41,0A3.91,3.91,0,0,1,50,68.8a1.31,1.31,0,0,0,1.22.7,8.36,8.36,0,0,0,6-1.74c4.24-3,8.63-5.83,13-8.69A1.48,1.48,0,0,0,71,57.66C71,54.87,71,52.08,71,49.24ZM43.31,72.45h0c.93,0,1.86,0,2.78,0s1.64-.65,1.59-1.52a1.41,1.41,0,0,0-1.58-1.41c-1.82,0-3.64,0-5.47,0-1.07,0-1.64.58-1.64,1.45s.58,1.43,1.64,1.48C41.52,72.49,42.42,72.45,43.31,72.45Z"/><path class="cls-1" d="M43.31,17.09A21.84,21.84,0,1,1,21.5,38.78,21.88,21.88,0,0,1,43.31,17.09Zm0,2.9a18.94,18.94,0,1,0,19,18.95A18.93,18.93,0,0,0,43.3,20Z"/></svg>