<svg id="Layer_1" data-name="Layer 1" xmlns="http://www.w3.org/2000/svg" viewBox="0 0 86.67 84.67"><defs><style>.cls-1{fill:#333;}</style></defs><title>iconos</title><path class="cls-1" d="M45.24,36.66l20.1-20.1c-2.08-4.65-1.25-8.57,2.35-11A8,8,0,1,1,67.87,19L47.71,39.16a10.81,10.81,0,0,1,1.23,10.68,11,11,0,0,1-8.67,6.83q0,2,0,4c0,1.19,0,2.38,0,3.57a1.09,1.09,0,0,0,.67,1.18,4.67,4.67,0,0,1,2.18,5.81,4.77,4.77,0,0,1-9.23-2,4.74,4.74,0,0,1,2.59-3.93c.23-.13.57-.39.57-.59,0-2.65,0-5.31,0-8-5.21-1.12-8.36-4.23-9.5-9.48h-.89c-3.2,0-6.4,0-9.6,0a1.13,1.13,0,0,0-1.28.84A6.3,6.3,0,0,1,7,51.29a6.36,6.36,0,1,1,6.61-10.83,6,6,0,0,1,2.26,3,.74.74,0,0,0,.85.58c3.4,0,6.79,0,10.19,0,.4,0,.67,0,.77-.53a11.11,11.11,0,0,1,17.43-6.88ZM38.69,53.6a7.95,7.95,0,1,0-8-7.86A8,8,0,0,0,38.69,53.6ZM76.84,12.26a4.77,4.77,0,0,0-9.54-.08,4.77,4.77,0,1,0,9.54.08ZM13.14,45.68A3.16,3.16,0,1,0,9.92,48.8,3.15,3.15,0,0,0,13.14,45.68ZM38.61,71.09a1.56,1.56,0,0,0,1.6-1.53,1.54,1.54,0,0,0-1.49-1.62,1.58,1.58,0,1,0-.11,3.15Z"/><path class="cls-1" d="M58.62,67.87l-9.45-9.45a5.64,5.64,0,0,1-.68-.75,1.57,1.57,0,0,1,2.29-2.11,7.3,7.3,0,0,1,.61.58q4.5,4.5,9,9a.8.8,0,0,0,1.08.23,6.28,6.28,0,0,1,8.63,3.53,6.36,6.36,0,1,1-12.23,3.37A6.92,6.92,0,0,1,58.62,67.87Zm5.53.07a3.17,3.17,0,1,0,3.15,3.22A3.17,3.17,0,0,0,64.15,67.94Z"/><path class="cls-1" d="M37.07,25c0-1.44,0-2.88,0-4.33a1,1,0,0,0-.67-1.09A4.66,4.66,0,0,1,34,14.21a4.77,4.77,0,0,1,9.23,0,4.66,4.66,0,0,1-2.37,5.38,1,1,0,0,0-.62,1c0,2.8,0,5.6,0,8.4a4.93,4.93,0,0,1-.08,1,1.57,1.57,0,0,1-3.11-.36C37.06,28.1,37.07,26.54,37.07,25Zm1.61-8a1.6,1.6,0,1,0-1.61-1.51A1.59,1.59,0,0,0,38.68,17Z"/></svg>