<svg id="Layer_1" data-name="Layer 1" xmlns="http://www.w3.org/2000/svg" viewBox="0 0 107.85 105.36"><defs><style>.cls-1{fill:#333;}</style></defs><title>iconos</title><path class="cls-1" d="M98,74.83h6c2.16,0,2.79.72,2.88,2.91a10.26,10.26,0,0,1-2.27,7A8.13,8.13,0,0,1,97.91,88c-15.06,0-30.11,0-45.17,0q-21.05,0-42.11-.08a9.08,9.08,0,0,1-9.42-7.46A14.6,14.6,0,0,1,1,76.86a2.09,2.09,0,0,1,2.3-2c1.72,0,3.45,0,5.18,0H9.86V73.17q0-24.17,0-48.35c0-2.32.61-3,2.91-3H95.11c2.21,0,2.85.66,2.85,2.89Q98,49,98,73.23Zm-83.77-.06h79.4V26.25H14.19Zm-8.7,4.41a4.81,4.81,0,0,0,4.8,4.43l86.8,0c.43,0,.86,0,1.29,0a4.63,4.63,0,0,0,3.89-4.4.39.39,0,0,0-.11,0q-17.7,0-35.4,0a1.42,1.42,0,0,0-1,.47A4.69,4.69,0,0,1,62,81.41H46.57A4.11,4.11,0,0,1,43.12,80a1.93,1.93,0,0,0-1.77-.8q-17.35,0-34.7,0Z"/><path class="cls-1" d="M46.23,68.14a2.19,2.19,0,0,1-2.13-2.82,6.33,6.33,0,0,1,.44-1L57.19,39.07a5.92,5.92,0,0,1,.52-.92,2.18,2.18,0,0,1,3.79,2.07,4.65,4.65,0,0,1-.24.53Q54.81,53.66,48.36,66.57A2.39,2.39,0,0,1,46.23,68.14Z"/><path class="cls-1" d="M71.5,52.45c-2.59-2.58-5.08-5-7.52-7.5a2.2,2.2,0,0,1,.22-3.53,2.09,2.09,0,0,1,2.78.33q4.55,4.5,9.05,9.05a2.14,2.14,0,0,1,0,3.32q-4.45,4.52-9,9a2.14,2.14,0,0,1-3.23.08A2.19,2.19,0,0,1,64,59.95C66.46,57.48,68.93,55,71.5,52.45Z"/><path class="cls-1" d="M34.31,50.34l5.76,5.74c.67.66,1.36,1.31,2,2a2.16,2.16,0,0,1,0,3.15,2.07,2.07,0,0,1-3.05,0Q34.32,56.61,29.74,52a2.1,2.1,0,0,1,.15-3.14q4.47-4.51,9-9A2.15,2.15,0,0,1,42,39.65a2.18,2.18,0,0,1,0,3.25c-2.16,2.22-4.36,4.4-6.56,6.58A12,12,0,0,1,34.31,50.34Z"/></svg>