<svg id="Layer_1" data-name="Layer 1" xmlns="http://www.w3.org/2000/svg" viewBox="0 0 600 254.5"><title>prueba</title><path d="M394.67,238H356.11a45.52,45.52,0,0,0-3.88-26.7A46.29,46.29,0,0,0,341.62,197c.54,1.23.75,1.81,1,2.35a45.47,45.47,0,0,1,3.2,36.89c-.45,1.38-1,2-2.63,2q-43.52-.09-87,0c-.44,0-.89-.07-1.47-.12-5.17-14-3.91-27.43,3.22-40.47a43.5,43.5,0,0,0-12.08,18.22,45.29,45.29,0,0,0-2,22.19H205.3c1.38-41.67,36.65-86.09,89.72-88.62C353.11,146.62,392.92,193.15,394.67,238ZM322.3,200.7c1.1-3.81,1.17-3.87,4.54-5.6a31.71,31.71,0,0,0,3.79-2.13c5.4-3.79,5-11.5-1-14.1-2.95-1.28-6.45-1.33-9.72-1.77a2.25,2.25,0,0,0-1.85,1.09,55.22,55.22,0,0,0-1.47,5.6c1.33-.41,2.17-.73,3-.94,2.88-.69,6.3.42,7,2.24.78,2-.63,4-3.74,5.85a17.58,17.58,0,0,0-4.65,3.61c-2.44,3-1.63,4.93,2,5.8C320.91,200.49,321.53,200.57,322.3,200.7Zm-4.07,1.86a3.82,3.82,0,0,0-3.89,3.38c-.06,2.15,2.07,4,4.56,4a3.6,3.6,0,0,0,3.83-3.64C322.66,204.28,320.61,202.55,318.23,202.56Z"/><path d="M318.59,133A44.57,44.57,0,0,1,302,136.65c-31.73.82-55.91-25.85-52.13-57.41,2.71-22.63,22.1-41.49,44.73-43.52,27.65-2.47,51,15.4,55.37,42.78a49.12,49.12,0,0,1-5.31,31.15,2.43,2.43,0,0,1-2.68,1.54q-10.08-.31-20.17-.1c-4.4.09-8.42,3.6-9.66,8a11.59,11.59,0,0,0,4.2,12.38C316.93,131.94,317.61,132.35,318.59,133Z"/><path d="M348.75,122.75a30.23,30.23,0,0,0,13.36-17.68c-6.71-1.73-8.63-6.34-8.26-12.62a128.52,128.52,0,0,0,0-13.36c-.23-5.08,1.16-9.15,6-11.35-7-24.6-31.26-45.5-62-44.58-28.7.86-51.4,21.36-57.81,44.56,4.61,2.12,6.18,5.9,6,10.84-.21,5.81,0,11.64-.14,17.45a9.22,9.22,0,0,1-8.49,9.09A9.69,9.69,0,0,1,227.14,98a12.09,12.09,0,0,1-.3-3c0-6,0-12,0-18a9.74,9.74,0,0,1,4.5-8.51,6.73,6.73,0,0,0,2.26-3.09c9.61-27.72,28.84-44.25,57.85-48.47,32.64-4.75,64.66,15.95,74.76,47.61a7.22,7.22,0,0,0,3.1,4.5,8.13,8.13,0,0,1,3.79,7.17c0,6.55.09,13.09,0,19.64-.06,4-2.17,6.75-5.72,8.59a5.46,5.46,0,0,0-2.53,2.68,33.8,33.8,0,0,1-16.06,19.17c-1.18.66-2.19,1.65-3.41,2.19a15.54,15.54,0,0,1-5.29,1.74c-5.26.23-10.54.14-15.82.06-5-.07-8.49-3.41-8.53-8s3.39-8,8.41-8.13c5.36-.12,10.73-.11,16.09,0C345.11,114.25,347.68,116.84,348.75,122.75Z"/><path d="M322.3,200.7c-.77-.13-1.39-.21-2-.35-3.67-.86-4.48-2.84-2-5.8a17.58,17.58,0,0,1,4.65-3.61c3.11-1.85,4.53-3.86,3.74-5.85-.72-1.82-4.13-2.93-7-2.24-.87.21-1.72.52-3,.94a55.22,55.22,0,0,1,1.47-5.6,2.25,2.25,0,0,1,1.85-1.09c3.27.44,6.77.49,9.72,1.77,6,2.6,6.38,10.32,1,14.1a31.71,31.71,0,0,1-3.79,2.13C323.47,196.84,323.4,196.9,322.3,200.7Z"/><path d="M318.23,202.56c2.38,0,4.43,1.71,4.51,3.79A3.6,3.6,0,0,1,318.9,210c-2.49,0-4.62-1.89-4.56-4A3.82,3.82,0,0,1,318.23,202.56Z"/></svg>